REM MD5 78111617ddca3ada25b5229a4ac89614
FILE "PlayStation Power (Spain) (Virgin Interactive).bin" BINARY
  TRACK 01 MODE2/2352
    INDEX 01 00:00:00
  TRACK 02 AUDIO
    INDEX 00 36:52:15
    INDEX 01 36:54:15
  TRACK 03 AUDIO
    INDEX 00 37:01:55
    INDEX 01 37:03:55
  TRACK 04 AUDIO
    INDEX 00 37:11:14
    INDEX 01 37:13:14
REM LEADOUT 41:02:59
